<svg width="1096" height="249" viewBox="0 0 1096 249" fill="none" xmlns="http://www.w3.org/2000/svg">
<g filter="url(#filter0_i_136_404)">
<path d="M101.264 106.445H47.169V244.649H15.759V106.445H0V77.129H15.759C15.759 53.397 23.786 34.6673 39.84 20.94C55.894 6.98 76.3686 0 101.264 0V29.316C65.2006 29.316 47.169 45.2537 47.169 77.129H101.264V106.445Z" fill="url(#paint0_linear_136_404)"/>
<path d="M117.111 99.116C133.397 82.1313 153.756 73.639 178.186 73.639C190.052 73.639 201.103 75.9657 211.341 80.619C221.811 85.0397 230.885 91.2053 238.563 99.116C246.473 107.027 252.639 116.333 257.06 127.036C261.48 137.506 263.691 148.79 263.691 160.889C263.691 172.988 261.48 184.388 257.06 195.091C252.872 205.561 246.939 214.751 239.261 222.662C231.583 230.573 222.509 236.855 212.039 241.508C201.569 245.929 190.284 248.139 178.186 248.139C165.854 248.139 154.454 245.929 143.984 241.508C133.746 236.855 124.789 230.573 117.111 222.662C109.433 214.751 103.383 205.561 98.9628 195.091C94.7748 184.388 92.6808 172.988 92.6808 160.889C92.6808 136.226 100.824 115.635 117.111 99.116ZM178.186 102.955C161.899 102.955 148.753 108.306 138.749 119.009C128.977 129.712 124.091 143.672 124.091 160.889C124.091 178.106 128.977 192.066 138.749 202.769C148.753 213.472 161.899 218.823 178.186 218.823C194.705 218.823 207.851 213.472 217.623 202.769C227.395 191.834 232.281 177.874 232.281 160.889C232.281 143.904 227.395 130.061 217.623 119.358C207.851 108.423 194.705 102.955 178.186 102.955Z" fill="url(#paint1_linear_136_404)"/>
<path d="M277.678 244.649V149.372C277.678 122.615 282.68 104.118 292.685 93.881C297.571 88.7623 303.504 84.9233 310.484 82.364C317.464 79.8047 323.513 78.2923 328.632 77.827C333.983 77.3617 341.196 77.129 350.27 77.129H380.982V106.445H343.988C339.335 106.445 335.728 106.561 333.169 106.794C330.61 107.027 327.585 107.841 324.095 109.237C320.605 110.633 317.58 112.843 315.021 115.868C310.6 121.452 308.39 132.62 308.39 149.372V244.649H277.678Z" fill="url(#paint2_linear_136_404)"/>
<path d="M468.128 73.639C507.682 75.2677 527.458 91.6707 527.458 122.848C527.458 161.703 501.981 181.131 451.027 181.131H436.718V154.258H453.47C469.059 154.258 479.878 151.931 485.927 147.278C491.977 142.392 495.001 134.365 495.001 123.197C495.001 115.984 492.326 110.633 486.974 107.143C481.623 103.42 474.759 101.559 466.383 101.559C449.864 101.559 436.835 107.376 427.295 119.009C417.989 130.642 413.335 144.602 413.335 160.889C413.335 178.106 418.338 192.066 428.342 202.769C438.58 213.472 451.842 218.823 468.128 218.823C482.786 218.823 511 210.149 527.458 195.091V224.756C512 239.149 489.999 248.139 468.128 248.139C441.604 248.139 420.432 240.345 404.61 224.756C388.789 209.167 380.878 189.042 380.878 164.379C380.878 136.924 388.673 114.705 404.261 97.72C419.85 80.7353 441.139 72.7083 468.128 73.639Z" fill="url(#paint3_linear_136_404)"/>
<path d="M661.085 77.129V106.445H599.312C592.564 106.445 586.748 107.725 581.862 110.284C576.976 112.843 574.533 116.45 574.533 121.103C574.533 123.895 575.114 126.454 576.278 128.781C577.441 130.875 578.721 132.62 580.117 134.016C581.745 135.412 584.072 136.924 587.097 138.553C590.354 139.949 592.797 140.996 594.426 141.694C596.287 142.159 603.732 144.486 616.762 148.674C629.791 152.862 639.447 156.352 645.729 159.144C652.011 161.936 656.78 165.775 660.038 170.661C663.528 175.314 665.738 179.968 666.669 184.621C667.599 189.042 668.065 193.462 668.065 197.883C668.065 229.06 646.659 244.649 603.849 244.649H543.472V215.333H603.849C625.719 215.333 636.655 209.516 636.655 197.883C636.655 192.299 633.397 187.646 626.883 183.923C620.601 180.2 612.806 177.059 603.5 174.5C594.426 171.941 585.235 169.032 575.929 165.775C566.855 162.285 559.06 156.817 552.546 149.372C546.264 141.694 543.123 132.271 543.123 121.103C543.123 106.91 548.59 96.0913 559.526 88.646C570.461 80.968 583.723 77.129 599.312 77.129H661.085Z" fill="url(#paint4_linear_136_404)"/>
<path d="M824.46 244.649H764.083C738.257 244.649 719.76 240.81 708.592 233.132C698.587 226.385 692.189 218.358 689.397 209.051C686.838 199.512 685.558 187.064 685.558 171.708V77.129H716.27V171.359C716.27 175.547 716.386 179.153 716.619 182.178C716.852 184.97 717.666 188.693 719.062 193.346C720.458 197.767 722.436 201.489 724.995 204.514C727.554 207.306 731.277 209.865 736.163 212.192C741.049 214.286 746.982 215.333 753.962 215.333H793.748V77.129H824.46V244.649Z" fill="url(#paint5_linear_136_404)"/>
<path d="M845.553 244.649V149.372C845.553 122.615 850.555 104.118 860.56 93.881C865.446 88.7623 871.379 84.9233 878.359 82.364C885.339 79.8047 891.388 78.2923 896.507 77.827C901.858 77.3617 909.071 77.129 918.145 77.129H948.857V106.445H911.863C907.209 106.445 903.603 106.561 901.044 106.794C898.484 107.027 895.46 107.841 891.97 109.237C888.48 110.633 885.455 112.843 882.896 115.868C878.475 121.452 876.265 132.62 876.265 149.372V244.649H845.553Z" fill="url(#paint6_linear_136_404)"/>
<path d="M1036 73.639C1075.56 75.2677 1095.33 91.6707 1095.33 122.848C1095.33 161.703 1069.86 181.131 1018.9 181.131H1004.59V154.258H1021.35C1036.93 154.258 1047.75 151.931 1053.8 147.278C1059.85 142.392 1062.88 134.365 1062.88 123.197C1062.88 115.984 1060.2 110.633 1054.85 107.143C1049.5 103.42 1042.63 101.559 1034.26 101.559C1017.74 101.559 1004.71 107.376 995.17 119.009C985.864 130.642 981.21 144.602 981.21 160.889C981.21 178.106 986.213 192.066 996.217 202.769C1006.45 213.472 1019.72 218.823 1036 218.823C1050.66 218.823 1074.5 215.333 1095.33 196.149V228.649C1080.5 242.649 1057.87 248.139 1036 248.139C1009.48 248.139 988.307 240.345 972.485 224.756C956.664 209.167 948.753 189.042 948.753 164.379C948.753 136.924 956.548 114.705 972.136 97.72C987.725 80.7353 1009.01 72.7083 1036 73.639Z" fill="url(#paint7_linear_136_404)"/>
</g>
<defs>
<filter id="filter0_i_136_404" x="0" y="0" width="1099.33" height="248.139" filterUnits="userSpaceOnUse" color-interpolation-filters="sRGB">
<feFlood flood-opacity="0" result="BackgroundImageFix"/>
<feBlend mode="normal" in="SourceGraphic" in2="BackgroundImageFix" result="shape"/>
<feColorMatrix in="SourceAlpha" type="matrix" values="0 0 0 0 0 0 0 0 0 0 0 0 0 0 0 0 0 0 127 0" result="hardAlpha"/>
<feOffset dx="4"/>
<feGaussianBlur stdDeviation="2"/>
<feComposite in2="hardAlpha" operator="arithmetic" k2="-1" k3="1"/>
<feColorMatrix type="matrix" values="0 0 0 0 0 0 0 0 0 0 0 0 0 0 0 0 0 0 0.25 0"/>
<feBlend mode="normal" in2="shape" result="effect1_innerShadow_136_404"/>
</filter>
<linearGradient id="paint0_linear_136_404" x1="900" y1="146.149" x2="427.5" y2="147.5" gradientUnits="userSpaceOnUse">
<stop offset="0.447115" stop-color="#00FFA8"/>
<stop offset="1" stop-color="#FF6B00"/>
</linearGradient>
<linearGradient id="paint1_linear_136_404" x1="900" y1="146.149" x2="427.5" y2="147.5" gradientUnits="userSpaceOnUse">
<stop offset="0.447115" stop-color="#00FFA8"/>
<stop offset="1" stop-color="#FF6B00"/>
</linearGradient>
<linearGradient id="paint2_linear_136_404" x1="900" y1="146.149" x2="427.5" y2="147.5" gradientUnits="userSpaceOnUse">
<stop offset="0.447115" stop-color="#00FFA8"/>
<stop offset="1" stop-color="#FF6B00"/>
</linearGradient>
<linearGradient id="paint3_linear_136_404" x1="900" y1="146.149" x2="427.5" y2="147.5" gradientUnits="userSpaceOnUse">
<stop offset="0.447115" stop-color="#00FFA8"/>
<stop offset="1" stop-color="#FF6B00"/>
</linearGradient>
<linearGradient id="paint4_linear_136_404" x1="900" y1="146.149" x2="427.5" y2="147.5" gradientUnits="userSpaceOnUse">
<stop offset="0.447115" stop-color="#00FFA8"/>
<stop offset="1" stop-color="#FF6B00"/>
</linearGradient>
<linearGradient id="paint5_linear_136_404" x1="900" y1="146.149" x2="427.5" y2="147.5" gradientUnits="userSpaceOnUse">
<stop offset="0.447115" stop-color="#00FFA8"/>
<stop offset="1" stop-color="#FF6B00"/>
</linearGradient>
<linearGradient id="paint6_linear_136_404" x1="900" y1="146.149" x2="427.5" y2="147.5" gradientUnits="userSpaceOnUse">
<stop offset="0.447115" stop-color="#00FFA8"/>
<stop offset="1" stop-color="#FF6B00"/>
</linearGradient>
<linearGradient id="paint7_linear_136_404" x1="900" y1="146.149" x2="427.5" y2="147.5" gradientUnits="userSpaceOnUse">
<stop offset="0.447115" stop-color="#00FFA8"/>
<stop offset="1" stop-color="#FF6B00"/>
</linearGradient>
</defs>
</svg>
